<?xml version="1.0" encoding="UTF-8"?>
<svg xmlns="http://www.w3.org/2000/svg" width="1024" height="768" viewBox="0 0 1024 768">
  <defs>
    <linearGradient id="bg" x1="0" y1="0" x2="1" y2="1">
      <stop offset="0" stop-color="#0B1220"/>
      <stop offset="0.55" stop-color="#0F1B33"/>
      <stop offset="1" stop-color="#2B1B54"/>
    </linearGradient>
    <radialGradient id="glow" cx="35%" cy="20%" r="65%">
      <stop offset="0" stop-color="#7C3AED" stop-opacity="0.35"/>
      <stop offset="0.6" stop-color="#2563EB" stop-opacity="0.18"/>
      <stop offset="1" stop-color="#000000" stop-opacity="0"/>
    </radialGradient>
    <filter id="noise" x="-10%" y="-10%" width="120%" height="120%">
      <feTurbulence type="fractalNoise" baseFrequency="0.9" numOctaves="3" stitchTiles="stitch"/>
      <feColorMatrix type="matrix" values="0 0 0 0 1  0 0 0 0 1  0 0 0 0 1  0 0 0 0.06 0"/>
    </filter>
  </defs>

  <rect width="1024" height="768" fill="url(#bg)"/>
  <rect width="1024" height="768" fill="url(#glow)"/>
  <rect width="1024" height="768" filter="url(#noise)" opacity="0.9"/>

  <rect x="64" y="64" width="896" height="640" rx="44" fill="rgba(255,255,255,0.03)" stroke="rgba(255,255,255,0.10)" stroke-width="2"/>

  <g>
    <text x="128" y="190" font-family="ui-sans-serif, system-ui, -apple-system, Segoe UI, Roboto, Arial" font-size="56" font-weight="700" fill="rgba(255,255,255,0.85)">J</text>
    <text x="128" y="236" font-family="ui-sans-serif, system-ui, -apple-system, Segoe UI, Roboto, Arial" font-size="22" font-weight="500" fill="rgba(255,255,255,0.55)">JBL Tour One M2</text>
  </g>

  <g>
    <g opacity="0.95">
      <path d="M408 292c0-42 34-76 76-76h56c42 0 76 34 76 76v184c0 42-34 76-76 76h-56c-42 0-76-34-76-76V292Z" fill="none" stroke="rgba(255,255,255,0.55)" stroke-width="18" />
              <path d="M408 360h-42c-26 0-48 22-48 48v8c0 26 22 48 48 48h42" fill="none" stroke="rgba(255,255,255,0.35)" stroke-width="18" />
              <path d="M616 360h42c26 0 48 22 48 48v8c0 26-22 48-48 48h-42" fill="none" stroke="rgba(255,255,255,0.35)" stroke-width="18" />
    </g>
  </g>

  <g>
    <path d="M64 116h896" stroke="rgba(255,255,255,0.10)" stroke-width="2"/>
    <circle cx="92" cy="90" r="6" fill="rgba(255,255,255,0.14)"/>
    <circle cx="114" cy="90" r="6" fill="rgba(255,255,255,0.10)"/>
    <circle cx="136" cy="90" r="6" fill="rgba(255,255,255,0.08)"/>
  </g>
</svg>